<svg xmlns="http://www.w3.org/2000/svg" width="578" height="220" viewBox="0 0 578 220">
<rect width="100%" height="100%" fill="#FFFEF8"/>
<text x="20" y="28" font-family="Malgun Gothic, Arial, sans-serif" font-size="16" font-weight="bold" fill="#1E3A5F">31. 나 같은 죄인 살리신</text>
<text x="20" y="48" font-family="Arial, sans-serif" font-size="11" fill="#64748B">Hugh Wilson (MARTYRDOM) / Traditional / Isaac Watts</text>
<line x1="50" y1="70" x2="558" y2="70" stroke="#1E293B" stroke-width="1.2"/>
<line x1="50" y1="82" x2="558" y2="82" stroke="#1E293B" stroke-width="1.2"/>
<line x1="50" y1="94" x2="558" y2="94" stroke="#1E293B" stroke-width="1.2"/>
<line x1="50" y1="106" x2="558" y2="106" stroke="#1E293B" stroke-width="1.2"/>
<line x1="50" y1="118" x2="558" y2="118" stroke="#1E293B" stroke-width="1.2"/>
<text x="52" y="108.4" font-family="serif" font-size="52" fill="#1E293B">𝄞</text>
<text x="78" y="89.2" font-family="serif" font-size="18" font-weight="bold" fill="#1E293B">4</text>
<text x="78" y="110.8" font-family="serif" font-size="18" font-weight="bold" fill="#1E293B">4</text>
<ellipse cx="90" cy="106.0" rx="7" ry="5" fill="#1E293B" transform="rotate(-20 90 106.0)"/>
<line x1="96" y1="106.0" x2="96" y2="78.0" stroke="#1E293B" stroke-width="1.4"/>
<ellipse cx="118" cy="106.0" rx="7" ry="5" fill="#1E293B" transform="rotate(-20 118 106.0)"/>
<line x1="124" y1="106.0" x2="124" y2="78.0" stroke="#1E293B" stroke-width="1.4"/>
<ellipse cx="146" cy="100.0" rx="7" ry="5" fill="#1E293B" transform="rotate(-20 146 100.0)"/>
<line x1="152" y1="100.0" x2="152" y2="72.0" stroke="#1E293B" stroke-width="1.4"/>
<ellipse cx="174" cy="94.0" rx="7" ry="5" fill="#1E293B" transform="rotate(-20 174 94.0)"/>
<line x1="180" y1="94.0" x2="180" y2="66.0" stroke="#1E293B" stroke-width="1.4"/>
<line x1="188.0" y1="70" x2="188.0" y2="118" stroke="#94A3B8" stroke-width="1"/>
<ellipse cx="202" cy="88.0" rx="7" ry="5" fill="#1E293B" transform="rotate(-20 202 88.0)"/>
<line x1="196" y1="88.0" x2="196" y2="116.0" stroke="#1E293B" stroke-width="1.4"/>
<ellipse cx="230" cy="88.0" rx="7" ry="5" fill="#1E293B" transform="rotate(-20 230 88.0)"/>
<line x1="224" y1="88.0" x2="224" y2="116.0" stroke="#1E293B" stroke-width="1.4"/>
<ellipse cx="258" cy="94.0" rx="7" ry="5" fill="#1E293B" transform="rotate(-20 258 94.0)"/>
<line x1="264" y1="94.0" x2="264" y2="66.0" stroke="#1E293B" stroke-width="1.4"/>
<ellipse cx="286" cy="100.0" rx="7" ry="5" fill="#1E293B" transform="rotate(-20 286 100.0)"/>
<line x1="292" y1="100.0" x2="292" y2="72.0" stroke="#1E293B" stroke-width="1.4"/>
<line x1="300.0" y1="70" x2="300.0" y2="118" stroke="#94A3B8" stroke-width="1"/>
<ellipse cx="314" cy="106.0" rx="7" ry="5" fill="#1E293B" transform="rotate(-20 314 106.0)"/>
<line x1="320" y1="106.0" x2="320" y2="78.0" stroke="#1E293B" stroke-width="1.4"/>
<ellipse cx="342" cy="100.0" rx="7" ry="5" fill="#1E293B" transform="rotate(-20 342 100.0)"/>
<line x1="348" y1="100.0" x2="348" y2="72.0" stroke="#1E293B" stroke-width="1.4"/>
<ellipse cx="370" cy="94.0" rx="7" ry="5" fill="#1E293B" transform="rotate(-20 370 94.0)"/>
<line x1="376" y1="94.0" x2="376" y2="66.0" stroke="#1E293B" stroke-width="1.4"/>
<ellipse cx="398" cy="100.0" rx="7" ry="5" fill="#1E293B" transform="rotate(-20 398 100.0)"/>
<line x1="404" y1="100.0" x2="404" y2="72.0" stroke="#1E293B" stroke-width="1.4"/>
<line x1="412.0" y1="70" x2="412.0" y2="118" stroke="#94A3B8" stroke-width="1"/>
<ellipse cx="426" cy="106.0" rx="7" ry="5" fill="#1E293B" transform="rotate(-20 426 106.0)"/>
<line x1="432" y1="106.0" x2="432" y2="78.0" stroke="#1E293B" stroke-width="1.4"/>
<ellipse cx="454" cy="112.0" rx="7" ry="5" fill="#1E293B" transform="rotate(-20 454 112.0)"/>
<line x1="460" y1="112.0" x2="460" y2="84.0" stroke="#1E293B" stroke-width="1.4"/>
<ellipse cx="482" cy="118.0" rx="7" ry="5" fill="#1E293B" transform="rotate(-20 482 118.0)"/>
<line x1="488" y1="118.0" x2="488" y2="90.0" stroke="#1E293B" stroke-width="1.4"/>
<ellipse cx="510" cy="106.0" rx="7" ry="5" fill="#1E293B" transform="rotate(-20 510 106.0)"/>
<line x1="516" y1="106.0" x2="516" y2="78.0" stroke="#1E293B" stroke-width="1.4"/>
<line x1="546" y1="70" x2="546" y2="118" stroke="#1E293B" stroke-width="2"/>
<line x1="551" y1="70" x2="551" y2="118" stroke="#1E293B" stroke-width="4"/>
<text x="20" y="204" font-family="Arial, sans-serif" font-size="10" fill="#64748B">Simplified PD-style educational score (not official published sheet music)</text>
</svg>